<!DOCTYPE svg PUBLIC "-//W3C//DTD SVG 1.1//EN" "http://www.w3.org/Graphics/SVG/1.1/DTD/svg11.dtd">
<svg xmlns="http://www.w3.org/2000/svg" viewBox="0 0 600 552">
<path fill="#7c7cca" d="M234.698 4.68c-.838 1.356 5.348 16.998 11.81 29.862 6.403 12.746 16.214 25.578 25.159 32.906 6.627 5.429 6.996 6.009 5.083 7.987-.687.711-5.923 6.754-11.634 13.429C259.405 95.539 254.32 101 253.817 101c-2.253 0-15.94-15.293-20.203-22.574-5.077-8.672-12.295-29.7-15.27-44.484l-.515-2.559-20.164 5.833c-11.091 3.208-22.64 6.452-25.665 7.208a610.46 610.46 0 0 0-11 2.884c-3.025.829-14.05 3.825-24.5 6.657-46.259 12.537-85.781 26.334-124 43.288l-10 4.436.166 3.922c.092 2.157 1.106 7.965 2.254 12.905 9.605 41.33 20.666 66.278 37.24 83.996 7.124 7.615 6.393 7.489 16.449 2.84 20.934-9.676 40.407-14.497 64.289-15.914l11.397-.676-.676 2.369c-.371 1.303-1.203 10.59-1.848 20.637-1.298 20.236-.467 32.207 3.246 46.732 4.76 18.622 5.077 46.216.862 75-2.681 18.304-2.922 35.989-.94 68.868 1.357 22.494 1.33 24.741-.467 39-2.074 16.455-2.393 31.094-1.106 50.807l.827 12.674 11.153 2.52c44.008 9.942 76.91 13.121 135.654 13.107 46.151-.011 56.09-.534 95-5.001 21.327-2.448 67.577-9.605 68.356-10.577.176-.219-.021-6.023-.437-12.898-1.272-21.03-1.008-48.002.612-62.616 1.382-12.468 1.376-16.165-.059-38.159-1.476-22.609-1.469-25.406.098-39.039 1.764-15.361 1.633-29.351-.564-60.186-.778-10.908-.72-17.597.23-27 .74-7.32 1.25-25.657 1.23-44.25-.023-21.219.309-31.749 1-31.747.569.002 4.859.653 9.534 1.446 4.675.794 13 1.956 18.5 2.582 21.211 2.415 34.168 6.613 48.368 15.671l5.369 3.424 2.534-2.313c13.673-12.477 24.118-30.632 30.743-53.435 3.113-10.716 12.486-48.94 12.486-50.92 0-1.631-35.617-19.462-49.774-24.919-27.527-10.61-41.308-15.092-68.726-22.353-8.25-2.185-23.775-6.301-34.5-9.146-20.3-5.386-57.024-17.199-60.508-19.464-1.105-.718-6.055-6.818-11-13.556L340.5 3.769l-6.5.612c-3.575.336-11 1.047-16.5 1.58-18.584 1.799-49.931 1.164-75.61-1.53-3.871-.407-6.851-.303-7.192.249m3.26 1.346c-2.661 1.645 7.903 25.639 10.785 24.497 11.807-4.676 50.556-5.656 68.739-1.738 11.356 2.446 10.348 2.87 15.043-6.317 3.787-7.406 3.77-5.36-.024 3.053-6.929 15.364-18.682 31.35-29.617 40.284-3.786 3.093-6.884 5.95-6.884 6.349 0 1.073 23.154 26.299 24.438 26.625 2.017.511 12.409-9.767 17.361-17.17 6.416-9.594 10.37-19.31 15.292-37.585l4.035-14.98-3.266-4.772c-6.642-9.702-12.09-16.795-13.528-17.613-.816-.464-9.621-.287-19.655.395-18.595 1.263-65.758.707-76.411-.901-2.879-.435-5.718-.492-6.308-.127m99.121 6.557c.048 1.165.285 1.402.604.605.289-.722.253-1.585-.079-1.917-.332-.332-.568.258-.525 1.312m-52.033 72.862c-1.911 2.302-.89 6.006 1.759 6.382 4.423.627 6.654-3.225 3.624-6.256-1.959-1.958-3.826-2.002-5.383-.126m-1.007 22.483c-2.328 4.349 2.659 7.818 6.179 4.299 1.63-1.631 1.781-2.361.847-4.105-1.44-2.691-5.628-2.807-7.026-.194M284 129c-2.405 4.494 2.881 7.999 6.325 4.194 1.477-1.633 1.487-2.018.098-4-1.917-2.738-5.012-2.831-6.423-.194m47 9c0 .55.477 1 1.059 1s.781-.45.441-1-.816-1-1.059-1-.441.45-.441 1m3 1c0 1.1.45 2 1 2 2.274 0 .777 2.882-2 3.85-1.65.575-3 1.28-3 1.567 0 .286.72.244 1.601-.094.88-.338 1.999.014 2.485.781.715 1.131.886 1.077.899-.281.02-2.182 2.86-2.783 6.015-1.273 1.375.658 3.512 1.509 4.75 1.891 3.462 1.068 2.756-1.369-.75-2.591-3.645-1.271-3.704-1.84-.504-4.846 3.442-3.233 2.451-3.609-2.303-.873-3.908 2.25-8.275 1.429-6.623-1.244.301-.488.071-.887-.511-.887s-1.059.9-1.059 2m65.232 3c0 1.925.206 2.713.457 1.75.252-.963.252-2.537 0-3.5-.251-.963-.457-.175-.457 1.75m-49.674-.093c-.309.498.34.671 1.441.383 2.335-.611 2.63-1.29.56-1.29-.793 0-1.693.408-2.001.907m45.314-.657c-.657 1.288-.386 4.75.372 4.75.533 0 .682-.752.329-1.67-.353-.921-.065-2.036.643-2.485 1-.634 1.007-.818.034-.83-.687-.008-1.307.098-1.378.235m16.502 1.217c-1.018 2.652.099 3.524 1.282 1 .646-1.379.743-2.467.219-2.467-.516 0-1.191.66-1.501 1.467m4.705 2.283c.043 2.063.29 3.235.548 2.606.258-.629 1.46-.944 2.671-.7l2.202.444-2.25-1.672c-2.545-1.891-3.021-3.661-.75-2.79.825.317 1.5.078 1.5-.531s-.9-1.107-2-1.107c-1.658 0-1.987.64-1.921 3.75m-7.382-1.357c-.409 1.041-.508 2.129-.221 2.417.913.912 1.715-.583 1.333-2.482-.35-1.74-.404-1.737-1.112.065M355 145.5c0 1.375.388 2.5.861 2.5.474 0 .647-1.125.384-2.5s-.651-2.5-.862-2.5c-.21 0-.383 1.125-.383 2.5m49-1.559c0 .518.45 1.219 1 1.559.55.34 1-.084 1-.941s-.45-1.559-1-1.559-1 .423-1 .941m-45.441 1.765c-.333.869-.37 1.816-.083 2.104.288.288.538-.114.556-.893.022-.996.467-.841 1.5.524 1.442 1.907 1.468 1.904 1.468-.143 0-2.56-2.606-3.766-3.441-1.592M391 145.5c0 .825.45 1.5 1 1.5s1-.675 1-1.5-.45-1.5-1-1.5-1 .675-1 1.5m-13.22 2.544c-.245 1.674-.072 3.276.387 3.559.458.283.833-1.087.833-3.044 0-4.361-.617-4.622-1.22-.515m6.47-2.382c-1.472.594-1.705 5.338-.262 5.338.544 0 .881-.787.75-1.75s.212-1.75.762-1.75.938.563.861 1.25c-.167 1.502 1.269 1.658 2.149.234.346-.559 1.117-.715 1.714-.346.647.401.797.206.371-.483-.392-.635-1.361-1.155-2.154-1.155-.793 0-1.441-.45-1.441-1 0-1.064-.729-1.153-2.75-.338m-19.18 1.119c.039.396.413 1.595.832 2.665.734 1.875.783 1.868 1.319-.185.345-1.318.027-2.335-.832-2.665-.764-.293-1.357-.21-1.319.185M380 149c0 1.1.45 2 1 2s1-.9 1-2-.45-2-1-2-1 .9-1 2m-8.823.667c.178.917.85 1.843 1.494 2.057.745.248.976-.358.634-1.667-.639-2.444-2.596-2.803-2.128-.39" fill-rule="evenodd"/>
</svg>